# xmcd CD database file
#
# Track frame offsets:
#	150
#	10645
#	22164
#	36018
#	50481
#	65037
#	76685
#	89542
#	104520
#	124510
#	135361
#	149213
#	165449
#	179930
#	201592
#
# Disc length: 2925 seconds
#
# Revision: 0
# Processed by: cddbd v1.5.2PL0 Copyright (c) Steve Scherf et al.
# Submitted via: CDex 1.50
#
DISCID=d80b6b0f
DTITLE=Mandy - On the other Side
DYEAR=2003
DGENRE=Country
TTITLE0=Wherever i go
TTITLE1=Ocean of love
TTITLE2=The Last Hank
TTITLE3=Burned by an old flame
TTITLE4=Dirty Little Town
TTITLE5=Man on the run
TTITLE6=Gone
TTITLE7=Drinking my thinkin
TTITLE8=long distance call
TTITLE9=mercenary song
TTITLE10=texas
TTITLE11=it wasn't me
TTITLE12=scorns of time
TTITLE13=on the other side of town
TTITLE14=goodbye
EXTD=YEAR: 2003
EXTT0=
EXTT1=
EXTT2=
EXTT3=
EXTT4=
EXTT5=
EXTT6=
EXTT7=
EXTT8=
EXTT9=
EXTT10=
EXTT11=
EXTT12=
EXTT13=
EXTT14=
PLAYORDER=
